<svg width="17" height="17" viewBox="0 0 17 17" fill="none" xmlns="http://www.w3.org/2000/svg">
<path d="M16.6406 8.32031C16.6406 7.17448 16.4258 6.10026 15.9961 5.09766C15.5664 4.09505 14.9674 3.20964 14.1992 2.44141C13.431 1.67318 12.5456 1.07422 11.543 0.644531C10.5404 0.214844 9.46615 0 8.32031 0C7.17448 0 6.10026 0.214844 5.09766 0.644531C4.09505 1.07422 3.20964 1.67318 2.44141 2.44141C1.67318 3.20964 1.07422 4.09505 0.644531 5.09766C0.214844 6.10026 0 7.17448 0 8.32031C0 9.33594 0.16276 10.293 0.488281 11.1914C0.813802 12.0898 1.28255 12.9036 1.89453 13.6328C2.50651 14.362 3.21615 14.974 4.02344 15.4688C4.83073 15.9635 5.70312 16.3021 6.64062 16.4844V10.8203H5V8.32031H6.64062V6.25C6.64062 5.70312 6.77734 5.20833 7.05078 4.76562C7.32422 4.32292 7.67578 3.97135 8.10547 3.71094C8.53516 3.45052 9.02344 3.32031 9.57031 3.32031H11.6406V5.82031H10C9.76562 5.82031 9.5638 5.90495 9.39453 6.07422C9.22526 6.24349 9.14062 6.43229 9.14062 6.64062V8.32031H11.6406V10.8203H9.14062V16.6016C10.2083 16.4974 11.1979 16.2109 12.1094 15.7422C13.0208 15.2734 13.8151 14.668 14.4922 13.9258C15.1693 13.1836 15.6966 12.3372 16.0742 11.3867C16.4518 10.4362 16.6406 9.41406 16.6406 8.32031Z" fill="#0FBDBD"/>
</svg>
