<svg width="12" height="12" viewBox="0 0 12 12" fill="none" xmlns="http://www.w3.org/2000/svg">
<path d="M4.59375 7.05469C4.9401 7.40104 5.35026 7.57422 5.82422 7.57422C6.29818 7.57422 6.70833 7.40104 7.05469 7.05469C7.40104 6.70833 7.57422 6.29818 7.57422 5.82422C7.57422 5.35026 7.40104 4.9401 7.05469 4.59375C6.70833 4.2474 6.29818 4.07422 5.82422 4.07422C5.35026 4.07422 4.9401 4.2474 4.59375 4.59375C4.2474 4.9401 4.07422 5.35026 4.07422 5.82422C4.07422 6.29818 4.2474 6.70833 4.59375 7.05469ZM1.70898 1.70898C2.84831 0.569661 4.22005 0 5.82422 0C7.42839 0 8.80013 0.569661 9.93945 1.70898C11.0788 2.84831 11.6484 4.22005 11.6484 5.82422V6.67188C11.6484 7.25521 11.4525 7.7474 11.0605 8.14844C10.6686 8.54948 10.1901 8.75 9.625 8.75C8.91406 8.75 8.33984 8.45833 7.90234 7.875C7.31901 8.45833 6.6263 8.75 5.82422 8.75C5.02214 8.75 4.33398 8.46289 3.75977 7.88867C3.18555 7.31445 2.89844 6.6263 2.89844 5.82422C2.89844 5.02214 3.18555 4.33398 3.75977 3.75977C4.33398 3.18555 5.02214 2.89844 5.82422 2.89844C6.6263 2.89844 7.31445 3.18555 7.88867 3.75977C8.46289 4.33398 8.75 5.02214 8.75 5.82422V6.67188C8.75 6.90885 8.83659 7.11849 9.00977 7.30078C9.18294 7.48307 9.38802 7.57422 9.625 7.57422C9.86198 7.57422 10.0671 7.48307 10.2402 7.30078C10.4134 7.11849 10.5 6.90885 10.5 6.67188V5.82422C10.5 4.54818 10.0397 3.44987 9.11914 2.5293C8.19857 1.60872 7.10026 1.14844 5.82422 1.14844C4.54818 1.14844 3.44987 1.60872 2.5293 2.5293C1.60872 3.44987 1.14844 4.54818 1.14844 5.82422C1.14844 7.10026 1.60872 8.19857 2.5293 9.11914C3.44987 10.0397 4.54818 10.5 5.82422 10.5H8.75V11.6484H5.82422C4.22005 11.6484 2.84831 11.0788 1.70898 9.93945C0.569661 8.80013 0 7.42839 0 5.82422C0 4.22005 0.569661 2.84831 1.70898 1.70898Z" fill="white"/>
</svg>
