<svg width="24" height="23" viewBox="0 0 24 23" fill="none" xmlns="http://www.w3.org/2000/svg">
<path d="M23.3789 2.05078C23.6133 2.28516 23.7305 2.57812 23.7305 2.92969C23.7305 3.28125 23.6133 3.57422 23.3789 3.80859L12.1875 15L8.73047 11.543L19.9219 0.351562C20.1562 0.117188 20.4492 0 20.8008 0C21.1523 0 21.4453 0.117188 21.6797 0.351562L23.3789 2.05078ZM3.57422 14.8828C4.31641 14.1406 5.19531 13.7695 6.21094 13.7695C7.22656 13.7695 8.10547 14.1406 8.84766 14.8828C9.58984 15.625 9.96094 16.5039 9.96094 17.5195C9.96094 18.8867 9.47266 20.0586 8.49609 21.0352C7.51953 22.0117 6.34766 22.5 4.98047 22.5C2.94922 22.5 1.28906 21.6602 0 19.9805C0.585938 19.9805 1.14258 19.7559 1.66992 19.3066C2.19727 18.8574 2.46094 18.2617 2.46094 17.5195C2.46094 16.5039 2.83203 15.625 3.57422 14.8828Z" fill="#0FBDBD"/>
</svg>
