<svg width="15" height="15" viewBox="0 0 15 15" fill="none" xmlns="http://www.w3.org/2000/svg">
<path d="M13.5 2.98828H10.4766V1.47656C10.4766 1.07812 10.3301 0.732422 10.0371 0.439453C9.74414 0.146484 9.39844 0 9 0H5.97656C5.57812 0 5.23242 0.146484 4.93945 0.439453C4.64648 0.732422 4.5 1.07812 4.5 1.47656V2.98828H1.47656C1.07812 2.98828 0.732422 3.13477 0.439453 3.42773C0.146484 3.7207 0 4.07812 0 4.5V13.5C0 13.8984 0.146484 14.2441 0.439453 14.5371C0.732422 14.8301 1.07812 14.9766 1.47656 14.9766H13.5C13.8984 14.9766 14.2441 14.8301 14.5371 14.5371C14.8301 14.2441 14.9766 13.8984 14.9766 13.5V4.5C14.9766 4.07812 14.8301 3.7207 14.5371 3.42773C14.2441 3.13477 13.8984 2.98828 13.5 2.98828ZM5.97656 1.47656H9V2.98828H5.97656V1.47656ZM10.4766 9.73828H8.22656V11.9883H6.75V9.73828H4.5V8.22656H6.75V5.97656H8.22656V8.22656H10.4766V9.73828Z" fill="white"/>
</svg>
