<svg width="20" height="20" viewBox="0 0 20 20" fill="none" xmlns="http://www.w3.org/2000/svg">
<path d="M18 3.98438H13.9688V1.96875C13.9688 1.4375 13.7734 0.976562 13.3828 0.585938C12.9922 0.195312 12.5312 0 12 0H7.96875C7.4375 0 6.97656 0.195312 6.58594 0.585938C6.19531 0.976562 6 1.4375 6 1.96875V3.98438H1.96875C1.4375 3.98438 0.976562 4.17969 0.585938 4.57031C0.195312 4.96094 0 5.4375 0 6V18C0 18.5312 0.195312 18.9922 0.585938 19.3828C0.976562 19.7734 1.4375 19.9688 1.96875 19.9688H18C18.5312 19.9688 18.9922 19.7734 19.3828 19.3828C19.7734 18.9922 19.9688 18.5312 19.9688 18V6C19.9688 5.4375 19.7734 4.96094 19.3828 4.57031C18.9922 4.17969 18.5312 3.98438 18 3.98438ZM7.96875 1.96875H12V3.98438H7.96875V1.96875ZM13.9688 12.9844H10.9688V15.9844H9V12.9844H6V10.9688H9V7.96875H10.9688V10.9688H13.9688V12.9844Z" fill="white"/>
</svg>
