<svg width="27" height="23" viewBox="0 0 27 23" fill="none" xmlns="http://www.w3.org/2000/svg">
<path d="M7.03125 3.28125C9.21875 1.09375 11.875 0 15 0C18.125 0 20.7812 1.09375 22.9688 3.28125C25.1562 5.46875 26.25 8.125 26.25 11.25C26.25 14.375 25.1562 17.0312 22.9688 19.2188C20.7812 21.4062 18.125 22.5 15 22.5C13.9453 22.5 12.7539 22.2754 11.4258 21.8262C10.0977 21.377 9.00391 20.8203 8.14453 20.1562L9.90234 18.3984C11.3867 19.4531 13.0859 19.9805 15 19.9805C17.4219 19.9805 19.4824 19.1309 21.1816 17.4316C22.8809 15.7324 23.7305 13.6719 23.7305 11.25C23.7305 8.82812 22.8809 6.76758 21.1816 5.06836C19.4824 3.36914 17.4219 2.51953 15 2.51953C12.5781 2.51953 10.5176 3.36914 8.81836 5.06836C7.11914 6.76758 6.26953 8.82812 6.26953 11.25H10.0195L4.98047 16.2305L0 11.25H3.75C3.75 8.125 4.84375 5.46875 7.03125 3.28125ZM16.7578 9.49219C17.2656 10 17.5195 10.5859 17.5195 11.25C17.5195 11.9141 17.2656 12.5 16.7578 13.0078C16.25 13.5156 15.6641 13.7695 15 13.7695C14.3359 13.7695 13.75 13.5156 13.2422 13.0078C12.7344 12.5 12.4805 11.9141 12.4805 11.25C12.4805 10.5859 12.7344 10 13.2422 9.49219C13.75 8.98438 14.3359 8.73047 15 8.73047C15.6641 8.73047 16.25 8.98438 16.7578 9.49219Z" fill="#0FBDBD"/>
</svg>
