<svg width="14" height="19" viewBox="0 0 14 19" fill="none" xmlns="http://www.w3.org/2000/svg">
<path d="M1.96875 16.9688C1.4375 16.9688 0.976562 17.1641 0.585938 17.5547C0.195312 17.9453 0 18.4219 0 18.9844H13.9688C13.9688 18.4219 13.7734 17.9453 13.3828 17.5547C12.9922 17.1641 12.5312 16.9688 12 16.9688H7.96875V15H10.9688C11.5312 15 12.0078 14.8047 12.3984 14.4141C12.7891 14.0234 12.9844 13.5469 12.9844 12.9844H4.96875C4.4375 12.9844 3.94531 12.8516 3.49219 12.5859C3.03906 12.3203 2.67188 11.9609 2.39062 11.5078C2.10938 11.0547 1.96875 10.5469 1.96875 9.98438C1.96875 9.45312 2.10938 8.96094 2.39062 8.50781C2.67188 8.05469 3.01562 7.6875 3.42188 7.40625C3.14062 7 3 6.53125 3 6C3 5.875 3.00781 5.76562 3.02344 5.67188C3.03906 5.57812 3.0625 5.46875 3.09375 5.34375C2.1875 5.71875 1.44531 6.32812 0.867188 7.17188C0.289062 8.01562 0 8.95312 0 9.98438C0 10.8906 0.21875 11.7266 0.65625 12.4922C1.09375 13.2578 1.69531 13.8672 2.46094 14.3203C3.22656 14.7734 4.0625 15 4.96875 15V16.9688H1.96875ZM5.53125 3.51562C6.21875 3.51562 6.79688 3.75781 7.26562 4.24219C7.73438 4.72656 7.96875 5.3125 7.96875 6C7.96875 6.375 7.89844 6.71875 7.75781 7.03125C7.61719 7.34375 7.40625 7.625 7.125 7.875L7.73438 9.46875L8.67188 9.14062L9 10.0781L10.875 9.375L10.5469 8.4375L11.4844 8.10938L8.76562 0.5625L7.78125 0.9375L7.45312 0L5.57812 0.65625L5.90625 1.59375L4.96875 1.96875L5.53125 3.51562ZM3.98438 6C3.98438 5.5625 4.13281 5.20312 4.42969 4.92188C4.72656 4.64062 5.07812 4.5 5.48438 4.5C5.89062 4.5 6.24219 4.64062 6.53906 4.92188C6.83594 5.20312 6.98438 5.5625 6.98438 6C6.98438 6.40625 6.83594 6.75781 6.53906 7.05469C6.24219 7.35156 5.89062 7.5 5.48438 7.5C5.07812 7.5 4.72656 7.35156 4.42969 7.05469C4.13281 6.75781 3.98438 6.40625 3.98438 6Z" fill="#0FBDBD"/>
</svg>
