<svg width="12" height="12" viewBox="0 0 12 12" fill="none" xmlns="http://www.w3.org/2000/svg">
<path d="M11.6484 5.82422C11.6484 5.02214 11.498 4.27018 11.1973 3.56836C10.8965 2.86654 10.4772 2.24674 9.93945 1.70898C9.40169 1.17122 8.7819 0.751953 8.08008 0.451172C7.37826 0.150391 6.6263 0 5.82422 0C5.02214 0 4.27018 0.150391 3.56836 0.451172C2.86654 0.751953 2.24674 1.17122 1.70898 1.70898C1.17122 2.24674 0.751953 2.86654 0.451172 3.56836C0.150391 4.27018 0 5.02214 0 5.82422C0 6.53516 0.113932 7.20508 0.341797 7.83398C0.569661 8.46289 0.897786 9.03255 1.32617 9.54297C1.75456 10.0534 2.2513 10.4818 2.81641 10.8281C3.38151 11.1745 3.99219 11.4115 4.64844 11.5391V7.57422H3.5V5.82422H4.64844V4.375C4.64844 3.99219 4.74414 3.64583 4.93555 3.33594C5.12695 3.02604 5.37305 2.77995 5.67383 2.59766C5.97461 2.41536 6.31641 2.32422 6.69922 2.32422H8.14844V4.07422H7C6.83594 4.07422 6.69466 4.13346 6.57617 4.25195C6.45768 4.37044 6.39844 4.5026 6.39844 4.64844V5.82422H8.14844V7.57422H6.39844V11.6211C7.14583 11.5482 7.83854 11.3477 8.47656 11.0195C9.11458 10.6914 9.67057 10.2676 10.1445 9.74805C10.6185 9.22852 10.9876 8.63607 11.252 7.9707C11.5163 7.30534 11.6484 6.58984 11.6484 5.82422Z" fill="white"/>
</svg>
